<svg width="14" height="12" viewBox="0 0 14 12" fill="none" xmlns="http://www.w3.org/2000/svg">
<path d="M7.00035 7.20291C7.68977 7.20291 8.24866 6.66449 8.24866 6.00031C8.24866 5.33613 7.68977 4.7977 7.00035 4.7977C6.31092 4.7977 5.75204 5.33613 5.75204 6.00031C5.75204 6.66449 6.31092 7.20291 7.00035 7.20291Z" fill="#333333"/>
<path d="M3.50507 8.39137L3.22883 8.32332C1.17698 7.82409 0 6.97519 0 5.99761C0 5.01936 1.17768 4.17114 3.22883 3.6719L3.50507 3.60453L3.5827 3.86796C3.79008 4.55765 4.05578 5.22981 4.37714 5.87769L4.43658 5.99761L4.37714 6.11753C4.05545 6.76633 3.789 7.43872 3.5827 8.12861L3.50507 8.39137ZM3.10155 4.285C1.54273 4.7081 0.585344 5.35353 0.585344 5.99761C0.585344 6.64035 1.54204 7.28645 3.10155 7.70888C3.29247 7.12408 3.52325 6.55209 3.7904 5.99761C3.52132 5.44221 3.29119 4.87006 3.10155 4.285ZM10.4949 8.39137L10.418 8.12726C10.2101 7.43744 9.94414 6.76508 9.62286 6.11686L9.56341 5.99761L9.62286 5.87701C9.94455 5.22956 10.2096 4.55651 10.418 3.86661L10.4949 3.60386L10.7712 3.67123C12.8237 4.17046 14 5.01869 14 5.99761C14 6.97586 12.823 7.82409 10.7712 8.32332L10.4949 8.39137ZM10.2082 5.99761C10.4879 6.58106 10.7208 7.15508 10.8984 7.70888C12.458 7.28645 13.4154 6.64035 13.4154 5.99761C13.4154 5.35353 12.4587 4.70877 10.8984 4.285C10.7077 4.86987 10.4771 5.44199 10.2082 5.99761Z" fill="#333333"/>
<path d="M3.09736 4.2823L3.02043 4.01955C2.44278 2.06035 2.61761 0.656973 3.50087 0.167847C4.36455 -0.313869 5.75413 0.255431 7.20945 1.69384L7.40806 1.89057L7.20945 2.08662C6.69255 2.60451 6.22012 3.16194 5.79679 3.75343L5.71777 3.86257L5.5807 3.87335C4.83631 3.92967 4.09793 4.04436 3.3729 4.21628L3.09736 4.2823ZM4.20371 0.557261C4.04706 0.557261 3.90859 0.590274 3.7918 0.654952C3.21275 0.97632 3.11064 2.09538 3.50927 3.60588C4.13237 3.47315 4.76108 3.37816 5.39468 3.32493C5.76149 2.82372 6.16165 2.34594 6.59264 1.89461C5.6814 1.041 4.82122 0.557261 4.20371 0.557261ZM9.79629 11.9999C8.96548 11.9999 7.8983 11.3962 6.79055 10.3007L6.59264 10.1047L6.79055 9.90927C7.30753 9.39056 7.78018 8.83247 8.20391 8.24045L8.28223 8.13265L8.4179 8.11985C9.16255 8.06453 9.9012 7.95028 10.6264 7.77827L10.9026 7.7109L10.9803 7.97433C11.5551 9.93218 11.381 11.3376 10.4991 11.8267C10.285 11.9436 10.0424 12.0034 9.79629 11.9999ZM7.40806 10.0999C8.3186 10.9536 9.17948 11.438 9.79629 11.438C9.95364 11.438 10.0921 11.4043 10.2082 11.3403C10.788 11.0182 10.8908 9.89715 10.4907 8.38665C9.86832 8.52005 9.23892 8.61572 8.60393 8.66894C8.23867 9.17095 7.83917 9.649 7.40806 10.0999Z" fill="#333333"/>
<path d="M10.9026 4.2823L10.6264 4.2156C9.90124 4.04315 9.16258 3.92845 8.4179 3.87267L8.28223 3.86122L8.20391 3.75208C7.78077 3.16027 7.30807 2.6028 6.79055 2.08528L6.59264 1.88922L6.79055 1.69384C8.24517 0.256105 9.63405 -0.313195 10.4991 0.167847C11.3817 0.657647 11.5572 2.06102 10.9803 4.01955L10.9026 4.2823ZM8.60393 3.32493C9.27109 3.3822 9.90329 3.47854 10.4907 3.60588C10.8901 2.09538 10.7879 0.97632 10.2082 0.654278C9.63195 0.33291 8.54728 0.824731 7.40806 1.89461C7.83885 2.34601 8.23887 2.82301 8.60393 3.32493ZM4.20371 11.9999C3.95763 12.0032 3.71505 11.9435 3.50087 11.8267C2.61761 11.3376 2.44278 9.93285 3.01973 7.97433L3.09526 7.7109L3.3715 7.77827C4.04566 7.94199 4.78835 8.0572 5.58 8.11985L5.71567 8.13265L5.79469 8.24045C6.21709 8.83198 6.68984 9.3905 7.20735 9.90927L7.40596 10.1047L7.20735 10.3007C6.1003 11.3969 5.03312 11.9999 4.20371 11.9999ZM3.50927 8.38732C3.11064 9.89782 3.21275 11.0189 3.7918 11.3409C4.36875 11.6576 5.44992 11.1691 6.59264 10.0999C6.16181 9.64847 5.76166 9.17071 5.39467 8.66962C4.76044 8.61558 4.1306 8.52128 3.50927 8.38732Z" fill="#333333"/>
<path d="M7.00035 8.74103C6.51991 8.74103 6.02687 8.72149 5.53174 8.68174L5.39467 8.66962L5.31565 8.56114C5.03644 8.17436 4.77374 7.77675 4.5282 7.36932C4.28447 6.96079 4.05794 6.54297 3.84914 6.11686L3.7904 5.99761L3.84914 5.87701C4.05824 5.45122 4.28413 5.03351 4.5282 4.62523C4.77087 4.22369 5.03592 3.82215 5.31565 3.43273L5.39468 3.32493L5.53174 3.31281C6.50864 3.23398 7.49066 3.23398 8.46756 3.31281L8.60393 3.32493L8.68225 3.4334C9.24158 4.20735 9.73282 5.02495 10.1509 5.87769L10.2082 5.99761L10.1509 6.11753C9.73398 6.97085 9.24268 7.78855 8.68225 8.56182L8.60323 8.67096L8.46756 8.68242C7.97382 8.72082 7.48009 8.74103 7.00035 8.74103ZM5.71777 8.13198C6.58145 8.19464 7.41925 8.19531 8.28223 8.13265C8.764 7.453 9.19225 6.73888 9.56341 5.99761C9.19356 5.25568 8.76525 4.54213 8.28223 3.86324C7.42867 3.79991 6.57133 3.79924 5.71777 3.86257C5.23435 4.54121 4.80601 5.25546 4.43658 5.99761C4.80855 6.73847 5.23677 7.45187 5.71777 8.13198Z" fill="#333333"/>
</svg>
