<svg width="10" height="12" viewBox="0 0 10 12" fill="none" xmlns="http://www.w3.org/2000/svg">
<path d="M9.36623 1.58241C8.8363 0.813904 8.03195 0.276811 7.11804 0.0812187C6.20412 -0.114373 5.24987 0.0463516 4.45086 0.53045L1.64337 2.31188C1.26395 2.54911 0.938792 2.86338 0.689039 3.23427C0.439287 3.60516 0.270529 4.02436 0.193737 4.46461C0.0572923 5.20449 0.175396 5.96867 0.528875 6.63311C0.287358 6.99547 0.125099 7.40458 0.0526852 7.83375C-0.0267825 8.28129 -0.0162611 8.74014 0.0836368 9.18359C0.183535 9.62703 0.370813 10.0462 0.63457 10.4167C1.16579 11.1834 1.96929 11.7198 2.88209 11.9169C3.79489 12.1141 4.74866 11.9573 5.54993 11.4785L8.35931 9.69515C8.73737 9.45698 9.0612 9.14235 9.30992 8.77156C9.55864 8.40076 9.72671 7.98204 9.8033 7.54241C9.93814 6.80488 9.81938 6.0435 9.46628 5.3818C9.83119 4.81078 10.0167 4.14388 9.99883 3.46682C9.981 2.78976 9.76069 2.13351 9.36623 1.58241V1.58241ZM4.17064 10.5714C3.72963 10.6859 3.26402 10.6623 2.83687 10.5039C2.40972 10.3455 2.04167 10.0599 1.78254 9.68576C1.45718 9.23599 1.33795 8.68073 1.43198 8.12921L1.4869 7.86341L1.53768 7.69897L1.68851 7.79883C2.01885 8.04572 2.39029 8.23242 2.7857 8.35034L2.88763 8.38564L2.87597 8.4855C2.86619 8.62441 2.90719 8.78059 2.98769 8.89998C3.15243 9.1365 3.4383 9.24988 3.71438 9.17555C3.77494 9.15602 3.834 9.1365 3.88477 9.10496L6.68248 7.32353C6.82354 7.23343 6.91381 7.09865 6.94879 6.93834C6.97804 6.77427 6.94216 6.60529 6.84874 6.46717C6.76862 6.35486 6.65633 6.26937 6.52663 6.22193C6.39694 6.17449 6.25589 6.16732 6.12204 6.20137C6.06148 6.22277 5.99679 6.24642 5.94563 6.27758L4.88756 6.9481C4.40467 7.23467 3.8309 7.32785 3.28191 7.20885C2.73291 7.08985 2.24954 6.76753 1.92924 6.30686C1.7692 6.08411 1.65553 5.8316 1.59493 5.56425C1.53433 5.2969 1.52804 5.02014 1.57642 4.75032C1.62501 4.48314 1.72931 4.22914 1.88255 4.00478C2.0358 3.78042 2.23457 3.59071 2.46598 3.44794L5.25768 1.66651C5.43614 1.55757 5.6286 1.47333 5.82978 1.4161C6.27043 1.302 6.73552 1.32536 7.16247 1.48303C7.58942 1.64069 7.95774 1.9251 8.21788 2.29799C8.40339 2.55867 8.52577 2.85876 8.57537 3.17466C8.62498 3.49056 8.60046 3.81363 8.50374 4.11846L8.45296 4.28478L8.30815 4.18491C7.97389 3.94104 7.60114 3.75464 7.20532 3.6334L7.10526 3.60412L7.11504 3.50425C7.12436 3.35572 7.08516 3.20818 7.00333 3.08377C6.92449 2.97003 6.81232 2.88343 6.68221 2.83584C6.55211 2.78825 6.41043 2.782 6.27663 2.81796C6.21719 2.83455 6.15998 2.85825 6.10624 2.88854L3.30289 4.68537C3.16184 4.77923 3.07156 4.91025 3.04223 5.07432C3.01289 5.23463 3.05201 5.4107 3.14228 5.53985C3.30289 5.77638 3.59477 5.87624 3.86521 5.80566C3.92631 5.79009 3.98502 5.76635 4.03974 5.73508L5.10948 5.05442C5.28497 4.94027 5.47741 4.85449 5.6797 4.80025C6.12069 4.68483 6.58661 4.70793 7.01396 4.86642C7.44131 5.02491 7.80931 5.31107 8.0678 5.6859C8.22773 5.90766 8.34193 6.15892 8.40379 6.42509C8.46565 6.69126 8.47392 6.96704 8.42814 7.23643C8.3818 7.50289 8.2797 7.7566 8.1285 7.98101C7.97729 8.20542 7.78038 8.39549 7.55061 8.53881L4.7529 10.3161C4.57092 10.4259 4.37529 10.5113 4.17101 10.5703L4.17064 10.5714Z" fill="#333333"/>
</svg>
